<?xml version="1.0" standalone="no"?>
<!DOCTYPE svg PUBLIC "-//W3C//DTD SVG 20010904//EN"
 "http://www.w3.org/TR/2001/REC-SVG-20010904/DTD/svg10.dtd">
<svg version="1.0" xmlns="http://www.w3.org/2000/svg"
width="32" height="32" viewBox="0 0 32 32" 
 preserveAspectRatio="xMidYMid meet">

<g transform="translate(0.000000,512.000000) scale(0.100000,-0.100000)"
fill="#000000" stroke="none">
<path d="M1400 4634 c-14 -2 -56 -9 -95 -15 -146 -24 -313 -92 -460 -187 -90
-59 -258 -227 -317 -317 -90 -139 -148 -275 -185 -437 -23 -102 -23 -374 0
-476 83 -363 304 -659 613 -819 l81 -42 13 42 c7 23 21 54 31 69 11 14 19 28
19 31 0 3 -34 24 -76 46 -282 152 -473 422 -529 745 -76 442 155 892 560 1094
301 150 631 149 935 -3 191 -96 355 -256 446 -437 19 -38 37 -68 40 -68 3 0
18 8 32 19 15 10 46 24 69 31 l42 13 -41 80 c-158 303 -457 531 -798 608 -81
18 -323 33 -380 23z"/>
<path d="M1405 4313 c-60 -8 -181 -42 -239 -68 -482 -213 -670 -804 -400
-1257 65 -108 194 -237 302 -302 346 -206 789 -151 1073 133 112 112 191 253
235 417 27 103 26 312 -3 419 -92 340 -362 591 -698 650 -81 14 -198 17 -270
8z m268 -559 c249 -135 460 -255 470 -266 22 -26 22 -70 0 -96 -10 -11 -221
-149 -469 -306 -305 -194 -459 -286 -478 -286 -15 0 -37 11 -51 25 l-25 24 0
551 0 551 25 24 c13 14 36 25 50 25 15 0 218 -104 478 -246z"/>
<path d="M1280 3404 c0 -207 4 -374 8 -372 5 2 149 93 321 202 l312 199 -28
17 c-46 29 -602 330 -608 330 -3 0 -5 -169 -5 -376z"/>
<path d="M2585 3735 l-25 -24 0 -576 0 -575 456 0 c329 0 468 -3 498 -12 45
-13 146 -105 146 -132 0 -14 27 -16 225 -16 l225 0 246 -215 c136 -119 248
-214 250 -213 1 2 -8 78 -21 168 -30 205 -30 206 0 235 21 22 33 25 95 25 62
0 74 3 95 25 l25 24 0 631 0 631 -25 24 -24 25 -1071 0 -1071 0 -24 -25z
m1006 -227 c19 -6 46 -20 62 -30 27 -19 27 -19 55 0 96 67 210 54 297 -33 54
-53 75 -102 75 -172 0 -145 -128 -385 -304 -569 -94 -98 -116 -92 -243 58
-127 151 -205 287 -238 413 -31 122 -15 196 60 270 69 70 152 92 236 63z"/>
<path d="M3465 3335 c-15 -14 -25 -36 -25 -53 0 -39 27 -126 57 -187 43 -85
165 -255 184 -255 4 0 33 35 66 78 150 194 208 358 148 417 -49 50 -135 15
-135 -55 0 -70 -86 -105 -135 -55 -16 15 -25 36 -25 55 0 19 -9 40 -25 55 -15
16 -36 25 -55 25 -19 0 -40 -9 -55 -25z"/>
<path d="M2377 2850 c-28 -46 -173 -195 -239 -245 l-60 -45 161 0 161 0 0 160
c0 88 -1 160 -3 160 -1 0 -11 -13 -20 -30z"/>
<path d="M1225 2375 l-25 -24 0 -671 0 -671 25 -24 c23 -24 31 -25 135 -25
104 0 112 -1 135 -25 14 -13 25 -36 25 -50 0 -14 -34 -84 -74 -155 -41 -72
-73 -130 -70 -130 3 0 121 81 262 180 l257 180 788 0 788 0 24 25 25 24 0 671
0 671 -25 24 -24 25 -1111 0 -1111 0 -24 -25z m2110 -160 c33 -32 33 -78 0
-110 l-24 -25 -951 0 -951 0 -24 25 c-16 15 -25 36 -25 55 0 19 9 40 25 55
l24 25 951 0 951 0 24 -25z m0 -320 c33 -32 33 -78 0 -110 l-24 -25 -951 0
-951 0 -24 25 c-16 15 -25 36 -25 55 0 19 9 40 25 55 l24 25 951 0 951 0 24
-25z m0 -320 c33 -32 33 -78 0 -110 l-24 -25 -951 0 -951 0 -24 25 c-16 15
-25 36 -25 55 0 19 9 40 25 55 l24 25 951 0 951 0 24 -25z m0 -320 c33 -32 33
-78 0 -110 l-24 -25 -951 0 -951 0 -24 25 c-16 15 -25 36 -25 55 0 19 9 40 25
55 l24 25 951 0 951 0 24 -25z"/>
</g>
</svg>
